<?xml version="1.0" encoding="UTF-8"?>
<svg enable-background="new 0 0 768 768" version="1.1" viewBox="185.01 185.18 397.98 397.63" xml:space="preserve" xmlns="http://www.w3.org/2000/svg">
  <style type="text/css">
    .st0{fill:#FF00A0;}
  </style>
  <switch>
    <g>  
      <path d="m570.79 471.84-72.77-72.77-98.77 98.77 72.77 72.77c16.27 16.27 42.76 16.28 59.03 0 7.65-7.65 11.7-17.54 12.16-27.58 10.03-0.46 19.93-4.51 27.58-12.16 16.27-16.27 16.27-42.75 0-59.03zm-59.89 78.62c-5.16 5.16-13.56 5.16-18.73 0l-52.62-52.62 18.73-18.73 52.62 52.62c5.16 5.17 5.16 13.57 0 18.73zm39.74-39.74c-5.16 5.16-13.56 5.16-18.73 0l-52.62-52.62 18.73-18.73 52.62 52.62c5.16 5.17 5.16 13.57 0 18.73z"/>
      <path d="m197.21 471.77c-16.27 16.27-16.27 42.76 0 59.03 7.65 7.65 17.54 11.7 27.58 12.16 0.46 10.03 4.51 19.93 12.16 27.58 16.28 16.28 42.76 16.28 59.03 0l72.77-72.77-98.77-98.77-72.77 72.77zm131.24 25.99-52.62 52.62c-5.16 5.16-13.56 5.16-18.73 0-5.16-5.16-5.16-13.56 0-18.73l52.62-52.62 18.73 18.73zm-92.36 12.89c-5.16 5.16-13.56 5.16-18.73 0-5.16-5.16-5.16-13.56 0-18.73l52.62-52.62 18.73 18.73-52.62 52.62z"/>
      <path d="m270.34 368.93 98.77-98.77-72.77-72.77c-16.27-16.27-42.76-16.28-59.03 0-7.65 7.65-11.7 17.54-12.16 27.58-10.03 0.46-19.93 4.51-27.58 12.16-16.27 16.27-16.27 42.76 0 59.03l72.77 72.77zm-12.88-151.39c5.16-5.16 13.56-5.16 18.73 0l52.62 52.62-18.73 18.73-52.62-52.62c-5.17-5.16-5.17-13.57 0-18.73zm-39.74 39.74c5.16-5.16 13.56-5.16 18.73 0l52.62 52.62-18.73 18.73-52.62-52.62c-5.17-5.17-5.17-13.57 0-18.73z"/>
      <path d="m546.66 319.09c27.23-27.23 27.36-71.42 0.28-98.49-27.08-27.08-71.26-26.95-98.5 0.28s-27.36 71.42-0.28 98.5c27.09 27.07 71.27 26.94 98.5-0.29zm-78.06-78.07c16.12-16.12 42.22-16.24 58.19-0.28 15.97 15.97 15.84 42.07-0.28 58.19s-42.22 16.24-58.19 0.28c-15.96-15.96-15.84-42.07 0.28-58.19z"/>
      <path d="m454.99 396.51-31.06-31.06-0.11 0.11c7.27 16.06 4.12 35.75-9.04 48.91-17.03 17.03-44.59 17.19-61.43 0.35s-16.68-44.4 0.35-61.43c8.36-8.36 19.45-12.95 31.21-12.9l0.11-28.5c-19.42-0.07-37.7 7.47-51.47 21.25-28.15 28.15-28.31 73.79-0.35 101.74 27.95 27.95 73.59 27.79 101.74-0.35 10.49-10.5 17.42-23.77 20.05-38.12z"/>
      <polygon class="st0" points="444.46 345.44 424.3 325.29 404.15 345.44 364.38 385.22 384.53 405.37 424.3 365.6 464.08 405.37 484.23 385.22"/>
    </g>
  </switch>
</svg>